<?xml version="1.0" standalone="no"?>
<!DOCTYPE svg PUBLIC "-//W3C//DTD SVG 20010904//EN"
 "http://www.w3.org/TR/2001/REC-SVG-20010904/DTD/svg10.dtd">
<svg version="1.0" xmlns="http://www.w3.org/2000/svg"
 width="1055.000000pt" height="1055.000000pt" viewBox="0 0 1055.000000 1055.000000"
 preserveAspectRatio="xMidYMid meet">
<metadata>
Created by potrace 1.11, written by Peter Selinger 2001-2013
</metadata>
<g transform="translate(0.000000,1055.000000) scale(0.100000,-0.100000)"
fill="#000000" stroke="none">
<path d="M3508 10072 c-9 -4 -49 -36 -89 -72 -40 -36 -80 -72 -89 -80 -9 -8
-59 -53 -110 -100 -51 -47 -102 -94 -114 -105 -13 -11 -64 -58 -116 -105 -51
-47 -98 -89 -104 -95 -15 -13 -100 -90 -220 -200 -54 -49 -102 -91 -107 -93
-20 -8 -5 -22 81 -76 298 -189 563 -476 749 -811 l58 -104 39 35 c21 20 80 73
129 118 50 45 113 102 140 127 28 24 52 46 55 49 3 4 34 33 70 65 36 33 113
103 170 155 57 52 128 118 159 145 118 107 131 123 131 163 0 35 -12 60 -51
107 -40 47 -518 650 -588 741 -97 126 -141 157 -193 136z"/>
<path d="M5097 10004 c-1 -1 -56 -5 -122 -8 -66 -3 -131 -8 -145 -10 -14 -2
-59 -7 -100 -11 -144 -11 -453 -68 -637 -116 l-82 -22 41 -54 c33 -43 46 -53
62 -49 26 8 233 55 264 61 70 13 142 25 182 30 25 3 56 8 70 10 23 4 53 8 148
20 227 27 806 28 984 0 13 -2 55 -7 93 -11 39 -4 72 -8 75 -9 3 0 28 -4 55 -9
208 -31 359 -65 575 -127 600 -171 1168 -469 1655 -868 44 -36 82 -68 85 -71
3 -3 25 -22 50 -44 130 -112 343 -331 472 -484 384 -457 671 -969 857 -1527
112 -339 165 -586 216 -1008 24 -201 24 -683 0 -912 -2 -22 -6 -60 -9 -85 -5
-50 -33 -241 -41 -280 -3 -14 -11 -59 -19 -100 -8 -41 -24 -113 -36 -160 -12
-47 -23 -95 -26 -107 -9 -47 -87 -293 -125 -398 -166 -456 -449 -962 -728
-1301 -14 -17 -44 -53 -66 -80 -137 -167 -350 -385 -510 -523 -55 -47 -102
-88 -105 -91 -3 -3 -45 -37 -95 -76 -661 -517 -1447 -845 -2275 -949 -30 -4
-62 -9 -70 -10 -9 -2 -60 -6 -115 -10 -55 -4 -111 -9 -125 -11 -32 -4 -459 -4
-525 0 -109 7 -241 18 -265 21 -14 2 -43 6 -65 9 -203 27 -482 82 -660 130
-189 52 -477 156 -660 239 -214 97 -545 281 -692 385 -412 290 -668 521 -955
859 -324 382 -597 840 -775 1298 -100 257 -195 582 -237 820 -20 110 -36 206
-41 245 -3 25 -7 63 -10 85 -21 164 -29 312 -29 535 0 173 8 378 19 465 2 17
7 57 10 90 3 33 10 85 15 115 5 30 11 71 14 90 3 19 8 46 11 60 3 14 10 52 16
85 22 119 21 116 62 271 l34 131 -48 57 -48 57 -25 -83 c-37 -122 -84 -318
-102 -418 -2 -14 -6 -34 -9 -46 -3 -12 -7 -39 -10 -60 -4 -21 -8 -50 -11 -64
-9 -56 -33 -260 -39 -330 -3 -41 -8 -97 -10 -125 -6 -60 -6 -489 -1 -561 8
-115 17 -213 27 -289 17 -139 20 -160 24 -175 2 -8 7 -35 10 -60 21 -151 87
-430 153 -640 32 -101 96 -282 112 -315 5 -11 21 -49 36 -85 61 -150 176 -384
269 -545 55 -95 241 -384 255 -395 3 -3 17 -21 30 -40 32 -47 197 -254 246
-309 249 -281 448 -464 775 -714 119 -91 370 -252 544 -347 317 -175 826 -374
1113 -436 12 -2 60 -13 107 -25 104 -24 277 -57 370 -69 39 -5 86 -11 105 -14
143 -21 320 -30 580 -31 224 0 351 5 495 20 22 2 65 7 95 10 30 3 64 8 75 10
11 3 36 7 55 10 50 6 258 43 278 49 9 3 28 7 42 10 56 9 342 88 455 124 259
84 646 256 848 376 43 25 81 46 83 46 3 0 32 18 64 40 32 22 61 40 64 40 16 0
399 275 447 320 9 8 36 31 60 50 222 177 511 478 720 750 44 58 86 112 92 120
25 32 157 230 157 235 0 3 15 27 33 53 35 53 34 51 108 183 51 93 182 356 206
414 36 87 46 113 58 140 28 62 108 294 142 410 33 115 38 133 47 173 2 9 9 37
16 62 7 25 14 54 16 65 2 11 8 43 14 70 14 66 18 89 30 155 15 86 19 112 25
160 2 25 7 61 10 80 29 183 44 630 30 845 -7 105 -16 219 -20 250 -3 17 -7 50
-9 75 -76 696 -353 1444 -759 2055 -55 82 -197 278 -243 335 -147 180 -440
489 -570 600 -23 19 -65 55 -94 80 -519 442 -1183 786 -1855 961 -140 36 -399
90 -490 102 -176 23 -242 31 -395 43 -58 5 -498 12 -503 8z"/>
<path d="M1740 9283 c-121 -35 -212 -113 -266 -227 -41 -87 -49 -133 -49 -261
1 -118 6 -162 35 -270 160 -597 753 -1217 1305 -1365 91 -24 245 -34 320 -20
77 15 186 73 234 126 117 126 157 363 101 584 -5 19 -11 46 -14 60 -10 57 -72
212 -127 320 -167 328 -424 621 -730 830 -48 33 -92 60 -97 60 -6 0 -12 3 -14
8 -5 12 -187 98 -258 122 -146 49 -337 64 -440 33z"/>
<path d="M1328 8008 c-53 -51 -181 -174 -284 -273 -103 -99 -215 -206 -248
-238 -171 -164 -219 -214 -227 -235 -19 -48 -10 -79 38 -139 39 -47 259 -310
347 -413 11 -14 55 -66 96 -115 41 -50 77 -92 80 -95 3 -3 47 -55 98 -117 101
-121 132 -142 182 -120 25 10 122 100 445 412 40 39 162 156 270 260 109 105
204 196 212 204 10 10 11 16 2 27 -6 8 -15 14 -19 14 -12 0 -167 97 -215 134
-259 200 -457 421 -605 674 -36 61 -67 112 -70 112 -3 0 -49 -42 -102 -92z"/>
<path d="M5125 7651 c-162 -47 -281 -148 -350 -296 -42 -90 -56 -161 -51 -260
6 -100 25 -163 73 -241 50 -81 68 -102 133 -155 134 -108 312 -145 480 -98 84
23 114 38 185 92 135 103 212 251 216 417 3 101 -9 158 -52 248 -64 134 -182
238 -324 287 -73 25 -233 28 -310 6z"/>
<path d="M5120 6264 c-241 -63 -457 -283 -646 -654 -180 -356 -361 -966 -428
-1440 -29 -207 -47 -361 -61 -505 -3 -33 -8 -71 -10 -85 -2 -14 -6 -59 -9
-100 -4 -41 -8 -86 -10 -100 -3 -14 -8 -61 -11 -105 -4 -44 -9 -93 -10 -110
-2 -16 -6 -64 -10 -105 -3 -41 -8 -91 -10 -110 -2 -19 1 -43 6 -52 9 -17 84
-18 1349 -18 1266 0 1339 1 1344 18 3 9 3 60 1 112 -7 163 -16 314 -20 345 -3
17 -7 58 -9 92 -3 34 -8 81 -10 105 -11 87 -47 364 -51 388 -2 14 -6 43 -10
65 -3 23 -7 52 -10 65 -3 14 -7 41 -11 60 -3 19 -9 55 -14 80 -5 25 -12 59
-14 75 -11 70 -25 136 -67 320 -51 226 -110 435 -169 595 -18 47 -35 94 -38
105 -3 11 -11 31 -19 45 -7 14 -13 28 -13 32 0 8 -32 80 -93 208 -40 82 -149
273 -171 297 -6 6 -22 26 -36 45 -81 109 -227 236 -330 288 -112 57 -288 75
-410 44z"/>
<path d="M6163 6072 c-13 -2 -23 -5 -23 -7 0 -2 21 -39 46 -82 84 -140 104
-177 157 -283 117 -233 211 -502 317 -903 16 -61 34 -70 117 -62 401 38 715
222 1016 596 99 124 273 423 344 594 38 92 54 137 49 142 -5 5 -1988 10 -2023
5z"/>
<path d="M2360 6053 c0 -33 156 -346 232 -466 243 -383 528 -642 845 -768 140
-55 365 -99 405 -78 17 9 27 36 98 284 109 373 222 645 378 905 41 69 76 128
79 133 2 4 -455 7 -1016 7 -943 0 -1021 -1 -1021 -17z"/>
</g>
</svg>
