<svg xmlns="http://www.w3.org/2000/svg" xmlns:xlink="http://www.w3.org/1999/xlink" version="1.1" x="0px" y="0px" viewBox="0 0 100 125" enable-background="new 0 0 100 100" xml:space="preserve"><g><path d="M33.977,24.716l0.262,2.292c10.128,4.411,21.636,4.411,31.765,0l0.256-2.292C55.982,20.151,44.251,20.151,33.977,24.716z"/></g><g><path d="M35.833,29.856c9.23,3.345,19.345,3.345,28.576,0c0.945,2.964,0.945,6.14,0,9.104c-2.52,7.896-10.953,12.253-18.841,9.732   C37.67,46.179,33.313,37.747,35.833,29.856z"/></g><path d="M69.361,16.975l-3.666,5.536c-9.955-4.23-21.201-4.23-31.156,0l-3.668-5.536c-0.045-0.074-0.093-0.155-0.126-0.242  c-0.282-0.711,0.06-1.516,0.771-1.804c4.652-1.891,8.914-4.639,12.542-8.11c3.392-3.237,8.727-3.237,12.118,0  c3.635,3.472,7.893,6.22,12.549,8.11c0.088,0.034,0.168,0.074,0.248,0.128C69.611,15.479,69.785,16.337,69.361,16.975z M46.491,9.01  c-0.334,2.889,1.094,5.704,3.626,7.133c2.534-1.429,3.969-4.244,3.627-7.133c-0.061,0.048-0.121,0.088-0.182,0.128  c-1.199,0.697-2.742,0.296-3.446-0.899C50.083,8.3,50.043,8.36,50.004,8.421C49.193,9.553,47.624,9.821,46.491,9.01z"/><path d="M63.684,51.542c13.775,6.528,20.947,21.946,17.061,36.687c-19.492,8.681-41.761,8.681-61.252,0  C15.61,73.488,22.776,58.07,36.55,51.542C44.5,57.842,55.74,57.842,63.684,51.542z M56.365,70.109  c-1.127,1.614-0.732,3.835,0.877,4.96c0.477,0.335,1.033,0.551,1.602,0.617c1.361,0.174,2.588,0.924,3.352,2.058  c0.771-1.134,1.992-1.884,3.346-2.058c1.957-0.242,3.338-2.019,3.098-3.969c-0.068-0.582-0.281-1.125-0.611-1.608  c-0.086-0.12-0.16-0.241-0.227-0.369c-0.777-1.535-0.162-3.412,1.367-4.184l-3.346-2.975c-0.18,0.777-0.838,1.348-1.629,1.421  c-1.012,0.088-1.902-0.658-1.998-1.67c-0.072,0.792-0.635,1.448-1.42,1.63c-0.986,0.228-1.979-0.389-2.205-1.381l-3.352,2.975  c0.135,0.068,0.26,0.142,0.375,0.223C57.002,66.765,57.35,68.701,56.365,70.109z"/><text x="0" y="115" fill="#000000" font-size="5px" font-weight="bold" font-family="'Helvetica Neue', Helvetica, Arial-Unicode, Arial, Sans-serif">Created by Aldric Rodríguez</text><text x="0" y="120" fill="#000000" font-size="5px" font-weight="bold" font-family="'Helvetica Neue', Helvetica, Arial-Unicode, Arial, Sans-serif">from the Noun Project</text></svg>