<svg xmlns="http://www.w3.org/2000/svg" xmlns:xlink="http://www.w3.org/1999/xlink" version="1.1" x="0px" y="0px" viewBox="0 0 100 125" enable-background="new 0 0 100 100" xml:space="preserve"><g><path d="M86.57,56.54c-1.55-13.39-6.69-23.96-15.72-32.32c-0.33-0.3-0.83-0.35-1.21-0.11c-0.39,0.23-0.57,0.7-0.44,1.13   c2.37,8.32,0.18,12.25-5.19,16.28c-3.1-17.59-7.1-22.57-16.38-34.13l-1.61-2.01c-0.28-0.35-0.76-0.48-1.18-0.3   c-0.42,0.18-0.67,0.61-0.61,1.06c1.81,14.35-2.26,20.35-6.56,26.7c-2.53,3.73-5.14,7.58-6.55,13.19   c-3.09-2.68-5.41-7.88-6.44-14.58c-0.06-0.42-0.39-0.76-0.8-0.84c-0.42-0.08-0.85,0.11-1.06,0.47   c-8.58,14.29-15.8,35.06-1.54,52.88c0.02,0.03,0.04,0.06,0.07,0.08C28.52,91.21,37.98,95,48.71,95c5.19,0,10.47-0.88,15.7-2.63   c12.48-4.16,21.45-15.93,22.33-29.28C86.88,60.95,86.82,58.75,86.57,56.54z M34.13,72.4c0-9.1,8.43-20.18,11.61-23   c-0.49,6.41,0.47,11.05,2.86,13.79c1.91,2.19,4.05,2.29,4.14,2.29c0.19,0.01,0.38-0.04,0.54-0.13c0.17-0.09,3.65-2.1,5.12-6.47   c2.2,2.83,6.56,9.06,7.32,14.69c0.7,5.13-0.7,10-3.93,13.71c-3.16,3.61-7.66,5.68-12.35,5.68C40.56,92.96,34.13,84.31,34.13,72.4z"/></g><text x="0" y="115" fill="#000000" font-size="5px" font-weight="bold" font-family="'Helvetica Neue', Helvetica, Arial-Unicode, Arial, Sans-serif">Created by Maxim Kulikov</text><text x="0" y="120" fill="#000000" font-size="5px" font-weight="bold" font-family="'Helvetica Neue', Helvetica, Arial-Unicode, Arial, Sans-serif">from the Noun Project</text></svg>