<svg xmlns="http://www.w3.org/2000/svg" xmlns:cc="http://creativecommons.org/ns#" xmlns:dc="http://purl.org/dc/elements/1.1/" xmlns:rdf="http://www.w3.org/1999/02/22-rdf-syntax-ns#" version="1.1" viewBox="0 0 100 125" x="0px" y="0px"><path d="m50.531 3.1582a1.2501 1.2501 0 0 0-1.2305 1.2676v12.43a1.2501 1.2501 0 1 0 2.5 0v-12.43a1.2501 1.2501 0 0 0-1.2695-1.2676zm-26.852 6.6875a1.2501 1.2501 0 0 0-1.0332 1.8848l6.166 10.793a1.2501 1.2501 0 1 0 2.1699-1.2402l-6.166-10.793a1.2501 1.2501 0 0 0-1.1367-0.64453zm52.508 0a1.2501 1.2501 0 0 0-1.0977 0.64453l-6.166 10.793a1.2501 1.2501 0 1 0 2.1699 1.2402l6.166-10.793a1.2501 1.2501 0 0 0-1.0723-1.8848zm-26.234 15.43c-15.434 0-27.956 9.5102-28.752 21.559-0.01364 0.03146-0.035156 0.059547-0.035156 0.097657v0.94336c-5.91e-4 0.06049-0.00586 0.11885-0.00586 0.17969v0.001953c0 0.06084 0.00556 0.1208 0.00586 0.18164v35.291c0 0.13706 0.098777 0.24609 0.2207 0.24609h57.133c0.12192 0 0.2207-0.10903 0.2207-0.24609v-35.291c5.95e-4 -0.06049 0.00586-0.1208 0.00586-0.18164v-0.001953c0-0.060491-0.00556-0.1192-0.00586-0.17969v-0.94336c0-0.03811-0.021486-0.065497-0.035156-0.097657-0.79604-12.048-13.318-21.559-28.752-21.559zm-44.086 0.89062a1.2501 1.2501 0 0 0-0.51758 2.375l11.113 5.5684a1.2504 1.2504 0 1 0 1.1191-2.2363l-11.111-5.5664a1.2501 1.2501 0 0 0-0.60352-0.14062zm88.135 0a1.2501 1.2501 0 0 0-0.56641 0.14062l-11.111 5.5664a1.2504 1.2504 0 1 0 1.1191 2.2363l11.113-5.5684a1.2501 1.2501 0 0 0-0.55469-2.375zm-48.543 10.717h8.9902c0.16577 1e-6 0.29883 0.11807 0.29883 0.26563v12.582h12.584c0.14745 0 0.26367 0.13309 0.26367 0.29883v8.9902c0 0.16574-0.11626 0.30078-0.26367 0.30078h-12.584v12.582c0 0.14755-0.13306 0.26562-0.29883 0.26562h-8.9902c-0.16577 0-0.29883-0.11807-0.29883-0.26562v-12.582h-12.584c-0.14745 0-0.26562-0.13504-0.26562-0.30078v-8.9902c0-0.16574 0.11818-0.29883 0.26562-0.29883h12.584v-12.582c0-0.14756 0.13306-0.26563 0.29883-0.26563zm-43.387 13.662a1.2501 1.2501 0 1 0-0.013672 2.5l12.428 0.070312a1.2501 1.2501 0 1 0 0.015625-2.5l-12.43-0.070312zm95.762 0-12.43 0.070312a1.2501 1.2501 0 1 0 0.015625 2.5l12.428-0.070312a1.2501 1.2501 0 1 0-0.013672-2.5zm-80.268 35.99c-0.1684 0-0.30273 0.15244-0.30273 0.3418v4.4199c0 0.18936 0.13433 0.3418 0.30273 0.3418h64.773c0.1684 0 0.30273-0.15244 0.30273-0.3418v-4.4199c0-0.18936-0.13433-0.3418-0.30273-0.3418h-64.773z"/><text x="0" y="115" fill="#000000" font-size="5px" font-weight="bold" font-family="'Helvetica Neue', Helvetica, Arial-Unicode, Arial, Sans-serif">Created by Tomi Triyana</text><text x="0" y="120" fill="#000000" font-size="5px" font-weight="bold" font-family="'Helvetica Neue', Helvetica, Arial-Unicode, Arial, Sans-serif">from the Noun Project</text></svg>